<svg id="nran_logo" xmlns="http://www.w3.org/2000/svg" xmlns:xlink="http://www.w3.org/1999/xlink" width="188" height="50" viewPort="0 0 188 50" version="1.1">
 	<path id="nran_N" d="M0,0 v50 h10 v-35 l19,35 h13 v-50 h-10 v35 l-19,-35 Z"/>
 	<g id="nran_I">
   	<rect id='nran_I_1' x="52" y="0" width="10" height="10"/>
   	<rect id='nran_I_2' x="52" y="15" width="10" height="35"/>
 	</g>
 	<g id="nran_R">
 		<path d="M67,0 v10 h10 c8 0,8 12,0 12 h-20 v10 h15 q10,0 10,18 l12,0 q-2,-22 -8,-22 c11 0,11 -28,-6 -28 Z"/>
 	</g>
 	<g id="nran_A">
 		<path id="nran_A_1" d="M120,0 h-6 l-15,50 h12 l9,-37 l9,37 h12 l-15,-50 Z"/>
		<use xlink:href="#nran_I_1" x="68" y="40"/>
 	</g>
	<use xlink:href="#nran_N" x="146"/>
</svg>